<svg width="86" height="126" viewBox="0 0 86 126" fill="none" xmlns="http://www.w3.org/2000/svg">
<path fill-rule="evenodd" clip-rule="evenodd" d="M40.4098 49.0402C43.1047 46.9924 49.8689 46.0718 52.7452 48.0434C55.5853 50.0231 55.8948 53.225 57.2185 56.1707C58.4673 55.5831 60.5298 56.4248 60.892 57.5809C61.341 58.1268 61.3611 59.6591 61.6706 60.3921C75.1453 62.5327 77.1908 73.0166 78.8126 84.9189C80.9583 96.9965 85.8289 109.048 83.7142 121.476C83.9896 121.874 84.2071 122.26 84.4081 122.72C84.8891 123.537 84.2691 124.694 83.2983 124.649C82.0423 124.539 80.7981 124.389 79.5354 124.342C76.036 124.221 72.5335 124.235 69.0326 124.279L68.5552 124.286C50.9121 124.505 33.27 124.937 15.6264 125.051C14.9863 125.052 14.6729 124.479 14.7584 123.914C14.9305 122.776 15.0902 121.638 15.2569 120.499C11.0837 121.6 6.64716 121.876 2.48577 120.615C2.19463 120.319 3.16405 120.48 3.31786 120.435C-0.511981 117.823 0.631766 112.321 0.971009 108.358C3.08056 94.7786 3.8242 79.7543 11.9747 68.1674C15.5007 63.4383 20.6702 59.6947 26.6103 58.852L26.7751 58.8298C28.512 58.5984 30.4477 58.5242 31.9663 57.5809C33.6745 56.2202 34.402 53.7059 36.1989 53.6822C36.7921 53.6745 37.5996 54.4239 38.4681 54.9326C38.5327 53.8136 39.1372 52.8694 39.2705 52.0019L39.2814 51.9277C39.4204 50.9164 39.2297 50.0061 40.4098 49.0402ZM69.3674 85.2777C65.5807 82.6521 55.7992 83.9716 55.5755 84.1185C55.0821 84.4422 54.8697 84.4705 54.6031 84.8911C54.3401 84.9256 54.0766 84.9617 53.8142 84.9993C53.2867 85.171 53.6773 85.8184 54.2864 85.5874C53.9201 87.1641 54.9984 88.2857 55.4277 89.8444C55.5667 90.3505 55.4324 91.2608 55.4277 91.7778C55.4691 92.4375 56.1996 93.2164 56.0777 93.8776C55.6452 96.2296 53.2965 98.5238 54.2864 100.805C54.9426 102.093 56.9157 102.75 58.2275 103.187C60.9452 104.229 65.681 103.148 67.2599 100.805C68.1026 99.5546 69.0781 96.4012 69.5803 95.4229L69.6919 93.8715C69.9662 90.014 70.2106 85.8622 69.3674 85.2777Z" fill="white"/>
<path fill-rule="evenodd" clip-rule="evenodd" d="M35.5391 53.4549C35.8005 53.224 36.1875 53.5142 36.0211 53.8265C35.6481 54.528 35.2652 55.1924 34.7641 55.8125C34.4603 56.1888 34.1348 56.5444 33.8051 56.8959C34.6514 57.6263 35.3773 58.5335 36.0624 59.3839C36.9387 60.471 37.7674 61.6044 38.7512 62.5992C39.7215 63.5806 40.7946 64.2666 42.0914 64.7238L42.3534 64.8145C43.6569 65.2712 45.0493 65.8876 45.784 67.119C45.9287 67.3618 45.6373 67.6618 45.3919 67.5102C44.1157 66.7216 42.6158 66.5628 41.2265 66.0417C39.8847 65.5387 38.7145 64.764 37.6811 63.7749C36.6488 62.7878 35.7824 61.6647 34.8787 60.5653C33.9849 59.4782 33.0229 58.5494 31.9655 57.6299C30.3342 58.7252 28.472 59.202 26.5784 59.67L26.3718 59.721C24.476 60.1895 22.5903 60.7333 20.8117 61.5492C19.2436 62.2683 17.7012 63.127 16.4239 64.297C15.068 65.5392 14.0127 67.1252 13.0468 68.6761C10.8861 72.1465 9.36715 75.9484 8.02991 79.7966C6.63904 83.7989 5.47567 87.8816 4.53652 92.0128C4.05886 94.1142 3.6709 96.2306 3.35206 98.3619C3.19861 99.3881 3.06226 100.417 2.94255 101.448C2.81473 102.549 2.78533 103.681 2.44697 104.739C2.30189 105.193 1.95939 105.382 1.61653 105.365L1.54688 106.235C1.45455 107.393 1.36848 108.553 1.33939 109.718C1.29113 111.657 1.31299 113.591 1.45274 115.525L1.47253 115.789C1.58238 117.201 1.82774 118.788 2.89166 119.822C3.99345 120.892 5.68791 121.23 7.17292 121.249C10.6317 121.294 13.9612 119.663 17.0219 118.232C20.1741 116.758 23.2401 115.123 26.2327 113.349C27.7567 112.445 29.2642 111.512 30.7526 110.551C31.483 110.079 32.2082 109.6 32.9279 109.113C33.3401 108.833 33.7307 108.528 34.1508 108.28C33.9451 108.089 33.8532 107.789 34.0252 107.526C32.8121 106.475 32.3071 104.6 32.2481 103.082C32.2004 101.857 32.3811 100.635 32.5236 99.4222C32.5955 98.8098 32.6844 98.199 32.7766 97.5903C32.8131 97.3496 32.8409 97.0919 32.8835 96.8378C29.6075 98.6346 26.2396 100.235 22.7826 101.656C21.0105 102.385 19.2158 103.04 17.3963 103.64L17.0275 103.762C15.3035 104.325 13.5383 104.857 11.756 105.179C11.6607 105.196 11.5833 105.055 11.6851 105.011C13.4219 104.246 15.219 103.601 16.9819 102.896L17.2716 102.779C17.2384 102.777 17.2038 102.772 17.1678 102.764C16.1339 102.515 15.1081 102.131 14.094 101.808C13.1529 101.508 12.0955 101.319 11.2158 100.867C11.1481 100.832 11.186 100.738 11.2519 100.733C12.2407 100.665 13.314 100.952 14.2834 101.122L14.6476 101.185C15.2577 101.293 15.8812 101.408 16.4883 101.559C16.5103 101.356 16.6239 101.152 16.7855 101.032C18.5644 99.7175 18.3838 97.0625 18.574 95.1044L18.7151 93.6504C18.9633 91.1062 19.2258 88.562 19.6247 86.0369C19.646 85.9024 19.855 85.941 19.8559 86.0683C19.8765 89.1986 19.6397 92.3144 19.521 95.4394L19.5026 95.9523C19.437 97.881 19.3856 99.8835 18.1686 101.367C18.3387 101.268 18.5688 101.268 18.7067 101.432C18.8761 101.633 18.9739 101.859 18.9708 102.08C20.0706 101.62 21.1655 101.148 22.2551 100.666C25.7582 99.1175 29.1879 97.3841 32.5268 95.509C32.8861 95.307 33.2275 95.4657 33.4052 95.7317L33.431 95.7281C33.4352 95.7275 33.4398 95.727 33.444 95.727L33.4698 95.726C33.4698 95.726 33.4714 95.726 33.4724 95.726C33.9426 95.4683 34.5827 95.6518 34.9862 96.0275C34.9981 96.0389 35.0079 96.0512 35.0188 96.0631C35.5292 95.8342 36.0061 95.5255 36.4386 95.1343C37.3241 94.3333 38.0743 93.3432 38.7279 92.3499C39.9323 90.5206 40.9548 88.4868 42.5817 86.9812C43.9029 85.7581 45.5412 84.9962 47.2602 84.5184C47.2529 84.4684 47.2726 84.4148 47.3072 84.3793C47.3955 84.2891 47.4585 84.2576 47.5722 84.3128C47.5815 84.3169 47.5867 84.3231 47.5908 84.3298L47.7582 84.0437C47.8497 83.8886 47.9437 83.7319 47.9762 83.6912C48.1715 83.4458 48.3725 83.2025 48.5766 82.9644C48.9223 82.5608 49.316 82.1629 49.7722 81.883C50.7709 81.2707 51.8208 81.6171 52.8479 81.9521C53.4684 82.1542 54.0863 82.3629 54.7058 82.5686L54.7699 82.5892C55.2318 82.7371 55.7722 82.867 55.9784 83.3551C56.06 83.5484 56.0729 83.7489 56.0347 83.9432C60.4212 82.8304 65.2929 83.3417 69.5734 84.6483C69.7377 84.6988 69.9015 84.8334 69.9361 85.0107C70.4265 87.5208 70.645 90.0949 70.4228 92.6473C70.2317 94.8513 69.7424 97.0105 68.8206 99.0279L68.7679 99.1418C67.9015 101.011 66.5282 103.316 64.4311 103.902C63.1647 104.256 61.7645 104.048 60.4729 103.983C59.2179 103.919 57.9345 103.911 56.6914 103.714C55.5842 103.538 54.6139 103.043 53.9298 102.144C53.3393 101.369 53.0287 100.432 52.774 99.5C52.6573 99.5371 52.5415 99.5768 52.4273 99.6211C51.9463 99.8087 51.5387 100.111 51.1703 100.467C50.3922 101.219 49.7887 102.133 48.9744 102.85C48.2372 103.5 47.3976 104.005 46.4965 104.394C44.6298 105.199 42.6272 105.521 40.653 105.947L40.5151 105.977C39.0286 106.303 37.5117 106.702 36.1994 107.475C36.1735 107.702 36.0702 107.916 35.9038 108.056C36.1348 108.273 36.2329 108.616 36.0299 108.939C35.4616 109.839 34.483 110.35 33.6046 110.926L33.5478 110.963C32.6836 111.535 31.812 112.095 30.9333 112.644C29.147 113.76 27.3234 114.815 25.474 115.823C22.4994 117.445 19.461 118.975 16.3675 120.363C16.5532 121.274 16.4853 122.214 16.6249 123.132L16.6463 123.263C16.7059 123.604 16.6254 123.888 16.3903 124.111L16.3654 124.134L16.3659 124.13L16.3438 124.151L16.3365 124.157L16.3389 124.155C16.3118 124.18 16.2839 124.203 16.2553 124.223L16.219 124.246C15.9926 124.383 15.7011 124.381 15.4693 124.26L15.4428 124.246L15.3983 124.221C15.092 124.044 14.8808 123.609 15.0079 123.263C15.3201 122.412 15.4381 121.504 15.7265 120.648L15.4978 120.75L15.1962 120.882C11.9349 122.289 8.31222 123.474 4.75874 122.515C3.18869 122.091 1.7212 121.193 0.935612 119.732C0.162575 118.293 0.0533012 116.623 0.0122778 115.022C-0.0383555 113.047 0.0677162 111.042 0.328685 109.083C0.503886 107.769 0.715771 106.43 1.04256 105.129C0.87449 104.981 0.750903 104.769 0.718301 104.506C0.564025 103.263 0.833983 101.971 0.999265 100.736C1.16067 99.5289 1.33902 98.3243 1.54078 97.1239C1.94802 94.6993 2.42118 92.2793 2.97211 89.8831C3.95253 85.6179 5.24725 81.4289 6.80598 77.3395L6.94248 76.9833C8.38279 73.2459 10.0505 69.5884 12.3728 66.3051C13.4836 64.7341 14.6579 63.31 16.2275 62.1776C17.6981 61.1173 19.3568 60.3534 21.0686 59.77C22.7822 59.186 24.5435 58.7943 26.336 58.551C28.1563 58.3036 30.0778 58.152 31.7759 57.4067C31.5611 57.0227 31.7455 56.5037 32.107 56.265C33.3236 55.463 34.4489 54.4193 35.5391 53.4549ZM74.4864 88.3388C74.5371 88.2615 74.6585 88.3105 74.6357 88.4017C74.0441 90.8212 73.4887 93.2457 73.126 95.7111C72.4709 100.161 72.5918 104.669 72.645 109.152L72.6476 109.384C72.6755 111.799 72.7137 114.214 72.7933 116.627C72.8341 117.847 72.9137 119.079 72.8703 120.3C72.8465 120.962 72.6698 121.588 72.6073 122.242C72.5525 122.815 72.6011 123.395 72.6285 123.968C72.6471 124.349 72.0839 124.332 72.0452 123.968L71.9966 123.496C71.9325 122.9 71.854 122.306 71.6582 121.735C71.4226 121.048 71.3094 120.373 71.2278 119.652C71.1022 118.546 71.0464 117.43 70.9984 116.317L70.9653 115.547C70.7633 110.895 70.7705 106.221 71.0971 101.574L71.1214 101.242C71.4448 96.8491 72.0059 92.1025 74.4864 88.3388ZM61.873 60.6529C61.718 60.5895 61.7723 60.3565 61.9438 60.3973L62.2548 60.471C64.5354 61.0163 66.7752 61.607 68.9038 62.6213C71.034 63.6368 72.8372 65.1521 74.2705 67.0154C77.0558 70.6379 78.2136 75.0402 79.1276 79.4378C80.1429 84.3252 81.0677 89.23 82.0923 94.1153L82.2824 95.0255C83.23 99.5758 84.1254 104.129 84.7846 108.732L84.8321 109.066C85.4971 113.801 85.897 118.699 85.1711 123.446C85.028 124.386 83.4619 124.152 83.5229 123.224C83.7001 120.541 83.8267 117.873 83.7043 115.185C83.5818 112.496 83.3292 109.819 82.9525 107.154C82.6353 104.91 82.1625 102.695 81.7445 100.47L81.6789 100.119C81.3286 98.2258 80.968 96.3352 80.6079 94.4446L80.0695 91.6134C79.2625 87.3745 78.4399 83.1314 77.5105 78.9193L77.4552 78.6714C76.5458 74.6185 75.2051 70.3734 72.4766 67.1551C69.7078 63.8893 65.7444 62.2446 61.873 60.6529ZM51.8125 103.639C51.8791 103.491 52.1116 103.507 52.1835 103.639C52.464 104.156 52.495 104.815 52.5482 105.399L52.5539 105.458C52.6211 106.17 52.681 106.885 52.7177 107.598C52.7869 108.954 52.82 110.307 52.8159 111.664C52.8112 113.054 52.7833 114.443 52.7084 115.831L52.6877 116.203C52.6195 117.41 52.5043 118.756 51.9298 119.811C51.7211 120.194 51.1532 120.081 51.0323 119.694C50.6361 118.424 50.8396 116.918 50.9409 115.618L51.0199 114.603C51.0979 113.588 51.1729 112.573 51.2318 111.556C51.3129 110.166 51.3795 108.775 51.4436 107.385C51.4648 106.933 51.4875 106.481 51.5113 106.029L51.548 105.352C51.579 104.785 51.5764 104.163 51.8125 103.639ZM7.26101 105.439L7.43641 105.27C7.97488 104.744 8.65534 103.934 9.45131 103.984C9.76875 104.004 9.97103 104.267 9.9052 104.579C9.76462 105.245 9.0836 105.591 8.59339 105.998C8.05631 106.443 7.55019 106.919 7.04499 107.4C6.59683 107.826 6.16583 108.264 5.74516 108.717L5.58789 108.887C5.43712 109.051 4.36333 110.02 4.47943 110.272L4.48578 110.283C4.51807 110.331 4.46424 110.397 4.41066 110.381C3.94695 110.234 3.97589 109.838 4.15119 109.436C4.48806 108.664 5.07794 107.949 5.59305 107.29C6.10672 106.632 6.66276 106.02 7.26101 105.439ZM53.4927 86.075C53.1341 85.2292 51.813 85.2467 51.0633 85.2978C49.1749 85.4251 47.1315 85.9019 45.4513 86.7827C43.7096 87.6956 42.5363 89.1589 41.4864 90.7768L41.4373 90.8531C40.4138 92.4406 39.428 94.3199 37.8258 95.4111C37.0095 95.9672 36.0568 96.4754 35.0663 96.695C34.9986 96.8146 34.8881 96.9089 34.7439 96.9429L34.6767 96.9584C34.3946 97.0208 33.9565 97.0893 33.5778 97.0481C33.5804 97.2331 33.5788 97.4166 33.5835 97.5913C33.5964 98.0934 33.6021 98.597 33.6021 99.099C33.6026 100.15 33.5457 101.205 33.5897 102.256C33.6289 103.186 33.7607 104.158 34.2081 104.99C34.5362 105.6 34.9697 106.004 35.4925 106.389C36.779 105.607 38.2335 105.13 39.7101 104.771C41.4957 104.337 43.3237 104.048 45.069 103.46C45.9086 103.177 46.7161 102.806 47.4477 102.303C48.2243 101.769 48.8169 101.046 49.4271 100.339L49.5226 100.229C50.1452 99.516 50.8246 98.8341 51.705 98.4475C52.4625 98.115 53.4617 98.0558 54.1241 97.5403C54.4707 97.2707 54.4997 96.8801 54.5364 96.4796C54.1117 96.5399 53.6627 96.443 53.2395 96.3935L53.0205 96.3677C52.6206 96.3203 52.2294 96.2682 51.8357 96.1667C51.7629 96.1476 51.7629 96.0378 51.8357 96.0188C52.3013 95.8992 52.7627 95.8482 53.2395 95.792L53.3517 95.7781C53.7831 95.7219 54.2367 95.6363 54.6604 95.7312C54.7363 95.443 54.8459 95.1673 54.9998 94.8915C55.2158 94.5039 55.6245 94.0648 55.6797 93.6122C55.6963 93.4772 55.6648 93.3174 55.6012 93.1978L55.579 93.1571C55.5521 93.1092 55.5206 93.0607 55.4741 93.0308C55.469 93.037 55.4576 93.0437 55.4343 93.0509C55.1083 93.1535 54.8242 92.9942 54.6733 92.7489C54.0326 92.8282 53.3341 92.8014 52.7332 92.8282L52.1261 92.8576C51.4772 92.887 50.7988 92.8999 50.1891 92.7695C50.1039 92.7509 50.0786 92.6097 50.1638 92.5731C50.913 92.2535 51.8223 92.1515 52.6247 92.0283C53.0732 91.9597 53.5247 91.9072 53.9742 91.8469C54.2734 91.8067 54.5911 91.7402 54.9011 91.7242C55.6787 90.7583 55.2597 89.2341 54.1778 88.8182C53.7836 88.9914 53.4291 88.8909 52.9982 88.8537C52.5684 88.8172 52.1375 88.7919 51.7061 88.794C50.8412 88.7976 49.9246 89.0249 49.0685 88.9269C48.929 88.911 48.7998 88.7259 48.9383 88.613C49.5939 88.079 50.5332 87.9053 51.3656 87.7914L51.5376 87.7682C51.8166 87.7316 52.1561 87.6786 52.5079 87.6471C52.5875 87.492 52.7306 87.375 52.945 87.3456C53.0086 87.3368 53.0727 87.3322 53.1367 87.3265L53.1357 87.3203C53.6586 87.2951 53.6358 86.4132 53.4927 86.075ZM17.6823 102.571C17.673 102.585 17.6629 102.599 17.6522 102.612L17.6356 102.631L17.7215 102.596L17.6823 102.571ZM62.6207 84.185C60.4186 83.9489 58.214 83.9989 56.0058 84.0623C55.8291 84.6385 55.2142 85.1297 54.6185 85.1483C55.0851 85.857 55.1331 86.8162 54.8061 87.5677C55.501 87.8435 56.0993 88.3393 56.4625 89.0455C56.9662 90.0238 56.9001 91.1129 56.4026 92.0169C56.8273 92.4009 57.0779 93.0246 57.0531 93.6122C57.0246 94.2673 56.6335 94.8271 56.3085 95.3698C55.9572 95.9564 55.9453 96.4729 55.8373 97.13C55.6792 98.0918 55.0293 98.6748 54.1933 99.0392L54.2377 99.2139C54.4532 100.052 54.7213 100.935 55.3377 101.547C56.1303 102.335 57.36 102.328 58.4072 102.378L58.4579 102.38C59.4168 102.428 60.3752 102.484 61.3341 102.538L62.0533 102.579C63.1569 102.639 64.2171 102.646 65.1182 101.918C66.5892 100.729 67.5977 98.7624 68.2358 97.0208C69.5755 93.3653 69.5915 89.3537 68.9767 85.5462C66.9142 84.8829 64.7741 84.4159 62.6207 84.185ZM44.311 90.25L44.327 90.2511C44.7807 90.3026 45.0917 90.6691 45.2028 91.1036C45.364 91.735 45.2849 92.3061 45.6724 92.8762C46.0713 93.4627 46.3162 93.9323 46.3741 94.6565C46.3978 94.9544 46.387 95.2518 46.4536 95.5435L46.5017 95.7477C46.5528 95.9657 46.5947 96.1755 46.5694 96.4095C46.5461 96.6229 46.4423 96.7893 46.2273 96.8579C45.5288 97.0811 44.9889 96.5667 44.8086 95.9167C44.6525 95.3554 44.8607 94.6864 44.6407 94.1591C44.5187 93.8668 44.294 93.6225 44.1669 93.3282C44.0408 93.0365 43.9778 92.7319 43.9576 92.4149C43.9194 91.8154 44.4505 91.0948 44.1539 90.5516C44.0909 90.4356 44.1627 90.2464 44.311 90.25ZM35.027 84.0623C35.5003 83.9664 36.0371 83.7463 36.5037 83.9293C36.7439 84.0236 36.8622 84.3154 36.6597 84.5184C36.3078 84.8705 35.7963 84.8901 35.322 84.9731L35.2807 84.9803C34.7201 85.0839 34.1585 85.1823 33.5964 85.2751C32.5384 85.4498 31.4781 85.6045 30.4141 85.7359C29.3212 85.8709 28.2253 85.991 27.1278 86.0817L26.703 86.1163C25.776 86.1905 24.8113 86.2462 23.9018 86.1044C23.7696 86.0838 23.7909 85.8916 23.9018 85.8581C24.8982 85.557 25.9913 85.4766 27.0215 85.3488C28.1168 85.2132 29.2102 85.07 30.3008 84.9004C31.3895 84.7303 32.477 84.5483 33.5602 84.3468C34.05 84.2561 34.5388 84.1613 35.027 84.0623ZM52.1049 83.0959C51.6895 82.949 51.2323 82.732 50.7823 82.8046C50.0062 82.9299 49.3154 83.6845 48.7011 84.1814L49.0096 84.1216C50.588 83.819 52.6779 83.4927 54.0032 84.4942C54.0063 84.4885 54.0089 84.4829 54.013 84.4772C54.1199 84.3149 54.2439 84.1886 54.3788 84.0499C54.3917 84.0375 54.4046 84.0252 54.4165 84.0123L54.4899 83.935L54.323 83.8773C53.9655 83.751 53.5418 83.5881 53.4751 83.5644L53.4705 83.5628C53.0143 83.4087 52.5581 83.2561 52.1049 83.0959ZM39.1371 50.0799C39.072 49.2464 40.3719 49.2531 40.4365 50.0799C40.5771 51.8849 40.1699 53.6729 39.2937 55.2558C39.2875 55.2672 39.2802 55.2775 39.2735 55.2883C39.8217 55.5728 40.3756 55.846 40.9424 56.0898C41.6667 56.4021 42.405 56.6861 43.1568 56.9274C43.8367 57.1459 44.6742 57.232 45.2457 57.6861C46.451 58.6443 45.9979 60.6318 45.7665 61.9204L45.7303 62.1234C45.6146 62.7863 45.5314 63.4667 45.8114 64.1032C46.1106 64.7826 46.7151 65.2866 47.2545 65.7732L47.3635 65.8717C47.8419 66.3062 48.388 66.8345 48.7383 67.4236C49.0587 66.7634 49.4947 66.2237 49.9561 65.616C50.2852 65.1825 50.0507 65.0392 49.8146 64.6161C49.5867 64.2084 49.4756 63.7739 49.5469 63.3084C49.6782 62.4497 50.3658 61.8296 51.0504 61.3632C51.859 60.8132 52.7616 60.4055 53.5976 59.8937C55.315 58.8417 56.9874 57.6392 58.494 56.3037C58.5359 56.2671 58.6077 56.3155 58.5746 56.3655C57.3842 58.1727 55.9887 59.7339 54.2734 61.0596C53.5774 61.5967 52.8469 62.0425 52.1111 62.511L51.8998 62.6466C51.6043 62.8373 51.2359 63.093 51.1026 63.4177C50.9683 63.7445 51.255 63.9914 51.409 64.2625C51.8988 65.1222 51.6627 65.9247 51.0819 66.6541L51.0551 66.6876C50.4779 67.3973 50.0403 68.0571 49.8316 68.9637C49.3821 70.9116 50.0078 72.9398 50.6629 74.768L50.6893 74.8402C51.0437 75.8257 51.4203 76.804 51.7283 77.8049L51.813 78.0817C52.092 79.0033 52.3204 79.9115 52.0073 80.8589C51.9008 81.181 51.4606 81.2573 51.2777 80.9537C50.6329 79.8847 50.4723 78.5982 50.0677 77.423C49.6735 76.2772 49.2214 75.1525 48.8406 74.0021C48.3503 72.5212 48.0222 70.927 48.2005 69.3735C48.1953 69.3642 48.1896 69.356 48.185 69.3462L48.0605 69.074C47.72 68.3365 47.3914 67.6927 46.7729 67.1046C46.1276 66.4912 45.427 65.9485 44.9191 65.2062C43.8166 63.594 44.4986 61.8003 44.6319 60.0375L44.6469 59.821C44.6711 59.4551 44.6846 58.9577 44.4448 58.7041C44.1751 58.419 43.5432 58.3464 43.1857 58.2201C42.2614 57.8938 41.351 57.5134 40.4836 57.0567C39.6579 56.6222 38.8581 56.1419 38.1136 55.5795L37.7359 55.296C37.1407 54.8476 36.5233 54.3579 36.1239 53.7471C36.0779 53.6771 36.1559 53.5637 36.2397 53.5972C36.9056 53.8672 37.5148 54.2966 38.1379 54.6698C38.1477 54.6471 38.1591 54.6239 38.1715 54.6012C38.9429 53.208 39.2601 51.6643 39.1371 50.0799ZM60.4202 59.6246C60.6857 58.8979 61.8958 58.954 61.8472 59.8174C61.8105 60.4808 61.5284 61.0792 61.2706 61.6812L61.2427 61.7456C60.9766 62.3729 60.6687 62.962 60.3008 63.5373C59.5976 64.6362 58.7735 65.6562 57.8937 66.619C57.0959 67.4917 56.0492 68.0256 54.8428 67.937C54.3344 67.8994 53.8213 67.7705 53.3759 67.5169C52.8469 67.2159 52.2718 66.3118 51.5971 66.5309C51.532 66.552 51.471 66.4567 51.5273 66.4113C52.3064 65.7851 53.191 66.7561 53.937 66.9901C55.0613 67.3427 56.215 66.953 56.9384 66.0459C57.6937 65.099 58.3892 64.0388 59.0241 63.0074C59.3465 62.4837 59.641 61.9405 59.8947 61.3807C60.1515 60.8153 60.2099 60.2009 60.4202 59.6246ZM58.6082 55.1538C58.5757 55.0533 58.7002 54.9579 58.7885 55.0151C59.3005 55.3476 59.7444 55.7872 60.2166 56.1728C60.741 56.6001 61.2685 57.0191 61.8048 57.4315C62.586 58.0325 61.6798 59.1391 60.9921 58.4824C60.0507 57.584 59.0195 56.4094 58.6082 55.1538ZM55.797 51.637C56.0047 50.8365 57.2354 51.1669 57.0561 51.9581L57.05 51.9818C56.7105 53.2889 57.1941 54.6193 58.2269 55.4666L58.2646 55.4976C58.9177 56.0192 57.9923 56.931 57.3455 56.4145C55.9339 55.2867 55.3465 53.3709 55.797 51.637Z" fill="black"/>
<path fill-rule="evenodd" clip-rule="evenodd" d="M66.483 26.1519C66.0779 22.9251 64.8054 19.4991 63.4667 16.4908C60.4566 10.1304 53.5664 9.25472 47.3891 7.94336C41.2935 7.0577 34.8382 6.258 28.8347 8.02506C25.4595 8.85027 24.1413 12.8619 24.6739 16.0278C24.9779 18.0005 25.8777 19.8676 26.645 21.6959C28.17 25.4505 29.1375 29.4701 29.1391 33.535C29.0344 36.1915 28.6588 39.2238 31.7177 40.349C34.6284 41.7938 34.8744 45.71 38.5195 47.9315C39.993 50.9107 44.0075 51.1731 46.8972 51.8643C48.7236 52.2132 50.5702 52.4699 52.4224 52.6359C57.7844 53.3214 62.0743 51.7705 64.8813 47.0032C66.7599 44.1019 68.1586 40.7521 67.8129 37.2358C67.4688 33.5329 66.8953 29.8496 66.483 26.1519Z" fill="white"/>
<path fill-rule="evenodd" clip-rule="evenodd" d="M47.4353 0.213374C47.7417 -0.132841 48.2129 -0.014085 48.4991 0.259661C48.6856 0.314451 48.8659 0.39594 49.0364 0.503769C49.4219 0.454442 49.8259 0.454441 50.2041 0.468255C50.2955 0.41697 50.3937 0.371303 50.5007 0.332079C51.2648 0.0533331 51.9416 0.194922 52.4996 0.568147C52.7683 0.314348 53.1078 0.15508 53.5412 0.17915C53.9282 0.200695 54.2036 0.382437 54.4402 0.621752C54.6758 0.282649 55.0566 0.040705 55.5314 0.00704728C56.1948 -0.0400117 56.8324 0.225436 57.361 0.636441C57.6689 0.283937 58.0884 0.0813214 58.5565 0.0793628C58.8645 0.023593 59.1889 0.045601 59.4829 0.134049C59.9086 0.262495 60.2832 0.503151 60.5808 0.815452C61.0525 0.364861 61.6297 0.0407058 62.2951 0.0879709C63.1564 0.15008 63.8699 0.782 64.2016 1.55979C64.7849 1.79281 65.3228 2.12522 65.7728 2.59905C65.7966 2.624 65.8193 2.65018 65.8436 2.67642C66.0859 2.76564 66.3143 2.89213 66.5147 3.05866C67.1513 3.58714 67.2934 4.35188 67.0826 5.10122C67.112 5.22116 67.1368 5.34316 67.1601 5.46506C67.7558 5.55552 68.2972 5.89875 68.6052 6.45763C69.0268 7.22454 68.9436 8.23535 68.4874 8.96752C68.291 9.28245 68.042 9.5478 67.7625 9.77985C68.0787 10.4967 67.9268 11.352 67.4174 11.9318C67.2928 12.1317 67.1404 12.3121 66.9689 12.4754C67.158 13.2165 66.8211 13.9811 66.1489 14.3771L66.0916 14.5207C66.0818 14.5446 66.072 14.5684 66.0616 14.5919C66.0544 14.6224 66.0451 14.6519 66.0363 14.6817C66.0203 14.9446 65.9335 15.2027 65.7609 15.4459C65.4086 15.9442 64.9715 16.2691 64.7395 16.8508L64.7162 16.9119C64.617 17.1872 64.2951 17.3814 64.0208 17.2965C65.5434 20.4166 66.3411 23.8883 66.8893 27.2906C67.1626 28.9879 67.3734 30.6913 67.5445 32.401L67.7119 34.1035C67.8596 35.6168 67.9909 37.1353 67.9919 38.6537C67.994 42.0886 67.0092 45.3925 64.896 48.1258C62.8976 50.7097 60.0693 52.5823 56.8743 53.3198C53.5759 54.0801 49.706 53.7806 46.7481 52.04C45.876 51.5282 46.6401 50.2968 47.5272 50.7087C49.2074 51.489 50.9145 52.0684 52.7766 52.1977C54.5916 52.3251 56.4113 52.0988 58.1329 51.506C60.9807 50.5247 63.4039 48.4691 64.9616 45.909C65.7289 44.6477 66.2843 43.2782 66.5804 41.8314C66.9487 40.0284 66.8929 38.1646 66.7576 36.3379L66.7483 36.2137C66.4812 32.6948 66.1283 29.1545 65.5589 25.6708C65.0552 22.5901 64.2807 19.572 63.2752 16.6205C62.8815 16.2745 62.4408 15.9883 61.9691 15.7708C58.5173 15.6269 55.0587 15.669 51.611 15.9067C48.6706 16.1107 45.7442 16.4559 42.84 16.959L42.529 17.0136C41.8863 17.1278 41.1722 17.1932 40.5667 17.4515C40.0469 17.6737 39.8361 18.1008 39.7054 18.6257C39.3758 19.9537 39.3257 21.407 39.2699 22.7687C39.2151 24.0998 39.3386 25.442 39.2316 26.7687C39.1412 27.8788 38.856 29.015 38.0319 29.818C37.601 30.2384 37.0704 30.4683 36.5724 30.7872C36.2505 30.9934 36.1141 31.2057 36.1554 31.5872C36.2453 32.4216 36.9185 33.4726 36.1621 34.1875C36.0288 34.3128 35.7989 34.3287 35.6677 34.1875C35.3556 33.8489 34.9242 33.5901 34.5543 33.317C34.3993 33.2036 34.5279 32.9835 34.7041 33.0618C34.935 33.1654 35.1712 33.2876 35.4124 33.3943C34.8798 32.9567 34.1218 32.7417 33.491 32.6144C33.1737 32.551 32.8395 32.5325 32.5087 32.5624C32.2642 32.6783 32.0143 32.7866 31.7643 32.8922C31.4467 33.0252 31.1258 33.1458 30.8026 33.2603C29.6816 34.1721 29.1468 35.655 29.3804 37.1049C29.5081 37.9053 29.8781 38.7759 30.5756 39.2434C31.4019 39.7965 32.5087 39.5588 33.4016 39.9696C34.2375 40.3541 34.7465 41.1309 35.1272 41.935L35.2864 42.2695C35.6398 43.0107 36.003 43.7323 36.4866 44.4065C37.0451 45.1879 37.7297 45.8894 38.4763 46.4919C38.8385 46.7836 39.2244 47.0455 39.6233 47.2846L39.7328 47.3491C40.1363 47.5857 40.4257 47.8109 40.453 48.3109C40.4618 48.4851 40.3518 48.6444 40.2097 48.7346C39.5985 49.1217 38.9904 48.6377 38.482 48.3C37.9327 47.9362 37.4078 47.5269 36.9216 47.08C35.9983 46.2327 35.1996 45.226 34.5847 44.1333C34.1166 43.3009 33.85 42.1298 33.1102 41.485C32.6583 41.0917 32.0198 41.0886 31.4554 41.0165C30.9304 40.949 30.4337 40.8402 29.9665 40.582C28.0662 39.5284 27.5291 36.9786 27.9799 35.0076C28.0563 34.6756 28.1633 34.3519 28.2954 34.0401C27.588 34.1581 26.7934 33.4283 27.0805 32.6917C27.1023 32.6361 27.1274 32.584 27.1514 32.5304C26.6853 32.2242 26.3175 31.7603 26.1428 31.1537C26.0533 30.8398 26.0402 30.5227 26.0872 30.2166C25.8612 30.0653 25.6746 29.8571 25.5545 29.6011C25.179 29.4279 24.8461 29.1688 24.6474 28.7984C24.3724 28.2873 24.4073 27.8167 24.6168 27.3929C24.5874 27.3397 24.559 27.2852 24.5317 27.2295C23.7622 26.7427 23.2251 25.9038 23.2863 24.9735C23.3059 24.6652 23.3823 24.3874 23.5002 24.1369C23.4904 24.1054 23.4805 24.0726 23.4718 24.041C22.8278 23.7141 22.2951 23.1772 22.1052 22.4604C21.9153 21.7392 22.139 21.0202 22.5866 20.4668C21.9316 19.9886 21.5376 19.3209 21.7766 18.3109C21.8738 17.9003 22.0692 17.5265 22.3333 17.2117C22.3323 17.202 22.33 17.1922 22.3279 17.1823L22.2666 17.1349C21.4581 16.4981 20.9933 15.6867 21.4896 14.6888C21.7122 14.24 22.0299 13.9273 22.4032 13.7214L22.4217 13.6626C22.1543 13.0907 22.0637 12.4556 22.2482 11.7878C22.3988 11.2377 22.7558 10.7997 23.212 10.509C23.1814 10.2627 23.1858 10.0002 23.235 9.71578C23.3168 9.2355 23.5559 8.81609 23.9051 8.51869C23.9183 8.45539 23.9346 8.39344 23.9532 8.33122C24.0711 7.95114 24.2916 7.53828 24.547 7.23201C24.7576 6.97822 24.9934 6.88564 25.2816 6.8758C25.2641 6.64169 25.2762 6.40413 25.3242 6.16337C25.4715 5.42053 25.9452 4.72212 26.6471 4.40513C26.9353 4.27549 27.2387 4.23746 27.5313 4.26895C27.7801 3.74604 28.2659 3.3671 28.863 3.28535C29.0955 3.25267 29.3116 3.25473 29.5102 3.28427C29.6227 3.2319 29.7395 3.18515 29.8617 3.14258C29.9425 3.11423 30.0244 3.08809 30.1062 3.06207C30.3824 2.71997 30.7459 2.44643 31.1705 2.28206C31.6606 2.0914 32.1595 2.11094 32.6015 2.27108L32.7424 2.24165C32.9628 1.86039 33.3143 1.56515 33.8547 1.43114C34.468 1.27975 35.0978 1.49108 35.5804 1.87575C35.5824 1.87575 35.5845 1.87575 35.5881 1.87451C35.8402 1.31135 36.2711 0.919156 36.995 0.94637C37.446 0.963843 37.8532 1.18723 38.1673 1.50536C38.3419 1.48345 38.5166 1.46381 38.6922 1.44433C38.8777 1.22744 39.0844 1.02492 39.3122 0.843026C39.6858 0.544436 40.1715 0.568507 40.4463 0.988894C40.5068 1.08038 40.5621 1.17295 40.6179 1.26558L40.87 1.24816C41.1671 0.848337 41.5716 0.578197 42.1265 0.556497C42.6349 0.535673 42.9976 0.784165 43.2735 1.13157C43.4983 1.12615 43.7246 1.12187 43.9504 1.11852C44.2133 0.814574 44.5233 0.546602 44.8773 0.324348C45.148 0.15441 45.5474 0.21224 45.767 0.438876C45.9147 0.592887 46.0527 0.753702 46.1813 0.920135C46.512 0.550209 46.9584 0.306513 47.4353 0.213374ZM31.3702 34.806C31.88 34.5164 32.5655 34.8303 33.059 35.0761C33.6604 35.3761 34.2572 35.8281 34.625 36.3946C35.1262 37.1657 33.9487 37.7888 33.4212 37.0971C33.0973 36.6714 32.8384 36.242 32.4454 35.8694C32.0863 35.5271 31.5657 35.2988 31.3593 34.8478C31.3517 34.8323 31.3539 34.8148 31.3702 34.806ZM31.7287 16.0853L31.7382 16.0581C31.8831 15.6623 31.2505 15.4917 31.1067 15.8842C30.8889 16.4791 31.14 17.1259 31.7288 17.3828C31.892 17.454 32.0784 17.4293 32.1768 17.2656C32.2594 17.1277 32.2211 16.8889 32.0593 16.8185C31.728 16.6739 31.6171 16.4187 31.7287 16.0853ZM26.2777 14.9787C26.5944 14.6998 26.1297 14.2388 25.8146 14.5166C25.5205 14.7756 25.3024 15.1275 25.3591 15.5322C25.4168 15.9446 25.7285 16.2358 26.0696 16.4415C26.4311 16.6598 26.7607 16.0948 26.4001 15.8771L26.3596 15.8525C26.2082 15.7587 26.0311 15.6296 26.0055 15.4451C25.9783 15.249 26.1446 15.096 26.2777 14.9787ZM28.0759 10.0578L28.0984 10.0413C28.4385 9.79902 28.1118 9.23194 27.7677 9.47693C27.4523 9.70165 27.1993 9.9936 27.1726 10.3963C27.1468 10.7875 27.3463 11.1268 27.6072 11.4021C27.8974 11.7083 28.36 11.2455 28.0703 10.9399C27.788 10.6421 27.7329 10.3171 28.0759 10.0578Z" fill="black"/>
<path fill-rule="evenodd" clip-rule="evenodd" d="M57.5184 43.0684C57.6858 42.7777 58.0712 42.5087 58.4241 42.5499C60.0046 42.7349 60.002 44.6472 59.3918 45.7636C58.8504 46.7532 57.7308 47.3347 56.6101 47.2496C55.4326 47.1604 54.4293 46.4698 53.988 45.3703C53.6956 44.6431 53.5607 43.3009 54.3378 42.8123C54.3523 42.803 54.376 42.805 54.3874 42.8184C54.7599 43.2509 54.7744 43.8998 55.1004 44.3812C55.4037 44.8291 55.8749 45.1987 56.4267 45.2559C56.839 45.2987 57.2559 45.1503 57.4171 44.7807C57.5045 44.5812 57.4941 44.4725 57.4616 44.3354L57.4316 44.2158C57.3283 43.7972 57.2823 43.4787 57.5184 43.0684ZM57.941 34.6818C58.7651 35.1818 60.0211 36.3477 59.1345 37.5873C58.0909 38.6805 56.5879 37.427 55.8475 36.8606C55.1609 36.4209 54.389 37.5507 55.026 38.0636C60.3776 42.0175 62.5492 34.8127 58.358 34.0937C57.8966 34.0149 57.7251 34.5272 57.941 34.6818ZM49.2368 31.2532C49.7426 30.4955 50.8973 30.607 51.1758 31.5057C51.3272 31.9928 51.1185 32.4304 51.1293 32.917C51.1386 33.3278 51.1112 33.7855 50.9852 34.1834C50.6974 35.0906 49.88 35.7312 48.9128 35.705C47.9487 35.6782 47.0993 35.0694 46.6958 34.2118C46.2907 33.3505 46.3765 32.4598 46.672 31.5841C46.6865 31.5423 46.7418 31.5217 46.7748 31.5573C47.1246 31.9279 47.3804 32.3196 47.6454 32.735L47.9167 33.1608C48.1244 33.4809 48.4256 33.8906 48.8131 33.8649L48.871 33.8592C48.9789 33.8499 48.9624 33.8711 49.0451 33.7247C49.0838 33.6572 49.0766 33.5309 49.0952 33.451L49.1019 33.4242L49.0983 33.4092C49.09 33.3706 49.0818 33.2979 49.075 33.1711L49.074 33.1433C49.0461 32.551 48.8782 31.7897 49.2368 31.2532ZM62.0615 31.7573C61.9705 30.7883 63.3356 30.5733 63.7892 31.2903C64.0258 31.664 64.0951 32.1335 64.1472 32.5789L64.1715 32.7897C64.2253 33.2469 64.2464 33.7221 64.048 34.1484C63.7349 34.82 63.054 35.1746 62.3198 35.1184C61.6182 35.0648 60.9785 34.6591 60.6411 34.0432C60.3404 33.4932 60.0413 32.4201 60.4066 31.847C60.4288 31.8119 60.4727 31.8073 60.5032 31.8341C60.8483 32.1402 60.9046 32.6979 61.1098 33.0964C61.3211 33.5072 61.6424 33.9076 62.1286 33.97C62.5941 34.0298 62.7719 33.7762 62.6536 33.3329C62.5001 32.7613 62.1188 32.3727 62.0615 31.7573ZM49.6051 25.4928L49.8283 25.4075C50.5935 25.1192 51.6434 24.7859 52.2649 25.4065C52.6488 25.7892 52.7217 26.353 52.4478 26.82C52.1161 27.3857 51.5209 27.3996 50.9464 27.483C50.2928 27.5778 49.6284 27.7579 49.0198 28.0148C48.3347 28.3043 47.6986 28.6651 47.0755 29.068C46.4829 29.4509 45.8929 30.0768 45.184 30.1947C45.1551 30.1995 45.122 30.1871 45.1148 30.1554C44.9536 29.4637 45.401 28.7829 45.8004 28.2433C46.2835 27.5898 46.8689 27.0536 47.523 26.5727C48.1543 26.1085 48.8761 25.7731 49.6051 25.4928ZM63.4973 27.9523L63.5655 27.9403C64.0294 27.8633 64.4495 27.8811 64.7988 28.2476C65.0659 28.5273 65.1687 28.8897 65.0416 29.2594C64.9238 29.6005 64.6618 29.947 64.2805 30.0185C62.9951 30.2599 61.5711 30.22 60.279 30.0372C59.6874 29.9535 59.0911 29.8511 58.5151 29.6897L58.25 29.6131C57.7695 29.476 57.2193 29.3328 56.87 28.98C56.7444 28.8532 56.8168 28.6717 56.9671 28.613C57.5763 28.3748 58.4112 28.5015 59.0612 28.4829C59.8171 28.4613 60.574 28.4048 61.3262 28.3269C62.0609 28.2506 62.7724 28.085 63.4973 27.9523Z" fill="black"/>
<path fill-rule="evenodd" clip-rule="evenodd" d="M48.2164 45.8837C49.0999 43.8173 51.0291 42.2989 53.2497 41.7438C54.8803 41.3371 56.592 41.35 58.2542 41.5113C59.1253 41.5953 60.0594 41.6639 60.8804 41.987C61.5815 42.2628 62.1524 42.7839 62.5823 43.3957C63.0933 44.1209 63.441 44.9508 63.6854 45.8012C63.72 45.9224 63.7525 46.044 63.783 46.1667C63.6766 46.8084 63.4513 47.3547 62.8556 47.7583C62.2743 48.1521 61.581 48.3135 60.8897 48.3707C60.822 48.3382 60.7564 48.3047 60.6959 48.2707C59.6187 47.6547 58.8607 46.2002 57.5009 46.3971C56.2872 46.5728 55.4884 48.097 54.7667 48.9902C52.4504 49.2598 50.1358 48.565 48.251 47.2434C48.1549 46.7909 48.1497 46.3342 48.2164 45.8837ZM65.3573 44.3163C65.1718 43.7972 64.9383 43.2947 64.6619 42.821C63.7474 41.2551 62.3431 40.0073 60.6763 39.2939C56.7336 37.6095 51.632 38.797 48.4478 41.5603C47.3602 42.505 46.2603 43.8931 45.9275 45.3863C45.8283 45.4059 45.7343 45.4574 45.6573 45.5301C43.3566 44.0843 40.9877 42.6937 39.1339 40.6902C37.7874 39.2341 36.8512 37.511 36.2777 35.6178C36.2307 35.4622 35.9791 35.4849 35.9869 35.6575C35.9889 35.6977 35.991 35.7379 35.9931 35.7781C35.9693 35.7039 35.8561 35.7421 35.8474 35.8142C35.5389 38.1141 35.153 40.5526 35.5084 42.8648C35.7208 44.2441 36.3485 45.2538 37.1881 46.3445C38.0876 47.5135 39.1055 48.6006 40.1465 49.6433C40.8074 50.3051 41.4971 51.0684 42.3062 51.554C43.2471 52.1179 44.314 52.5462 45.3179 52.9812C46.3393 53.4255 47.3763 53.8353 48.4323 54.1909C50.5439 54.9043 52.7263 55.397 54.947 55.613C56.7248 55.7852 58.7569 55.9728 60.4608 55.3053C61.7665 54.794 62.8205 53.8693 63.6569 52.757C64.5668 51.5452 65.2865 50.1649 65.6843 48.7098C66.0977 47.1981 65.4441 44.5596 65.3573 44.3163Z" fill="black"/>
</svg>
