<svg width="58" height="59" viewBox="0 0 58 59" fill="none" xmlns="http://www.w3.org/2000/svg">
<path d="M49.2078 49.847H40.6512V36.2701C40.6512 33.0331 40.5934 28.865 36.1996 28.865C31.7433 28.865 31.0599 32.3945 31.0599 36.0312V49.847H22.5033V21.9278H30.7182V25.7449H30.8337C32.5084 22.8492 35.6269 21.1137 38.9379 21.2356C47.6101 21.2356 49.2126 27.0124 49.2126 34.5346L49.2078 49.8421V49.847ZM12.8494 18.1107C11.535 18.1043 10.2761 17.5729 9.3462 16.6318C8.41631 15.6907 7.89047 14.4161 7.88287 13.0846C7.88287 10.3253 10.1255 8.05357 12.8494 8.05357C15.5732 8.05357 17.8111 10.3253 17.8159 13.0846C17.8159 15.8438 15.5732 18.1107 12.8494 18.1107ZM17.1277 49.847H8.56144V21.9278H17.1277V49.847ZM53.4669 7.24583e-05H4.25906C3.14329 -0.00649236 2.07004 0.433263 1.27254 1.22378C0.475037 2.01429 0.0177324 3.09168 0 4.22182V54.2783C0.0177324 55.4085 0.475037 56.4859 1.27254 57.2764C2.07004 58.0669 3.14329 58.5066 4.25906 58.5001H53.4717C54.59 58.5093 55.6668 58.071 56.4679 57.2804C57.269 56.4899 57.7297 55.4111 57.75 54.2783V4.21695C57.7297 3.0851 57.2687 2.00725 56.4673 1.21828C55.6659 0.42931 54.5891 -0.00681648 53.4717 0.00494711L53.4669 7.24583e-05Z" fill="#0A66C2"/>
</svg>
