<svg width="77" height="81" viewBox="0 0 77 81" fill="none" xmlns="http://www.w3.org/2000/svg">
<path d="M68.4505 66.6273H13.0541C10.9938 66.6273 9.31689 64.8633 9.31689 62.6959V23.422C9.31689 21.2546 10.9938 19.4906 13.0541 19.4906H68.4505C70.5108 19.4906 72.1877 21.2546 72.1877 23.422V62.688C72.1877 64.8633 70.5108 66.6273 68.4505 66.6273Z" fill="#A7B8C6"/>
<path d="M20.4832 15.4485H8.9332C7.21875 15.4485 5.82764 16.9119 5.82764 18.7154V59.3183C5.82764 61.1218 7.21875 62.5852 8.9332 62.5852H65.5929C67.3073 62.5852 68.6984 61.1218 68.6984 59.3183V18.7154C68.6984 16.9119 67.3073 15.4485 65.5929 15.4485H20.4832Z" fill="white"/>
<path d="M68.7434 34.0295H63.615C63.5173 34.0295 63.4346 33.9425 63.4346 33.8397V30.4383C63.4346 30.3355 63.5173 30.2484 63.615 30.2484H68.7434C68.8411 30.2484 68.9238 30.3355 68.9238 30.4383V33.8397C68.9238 33.9504 68.8411 34.0295 68.7434 34.0295Z" fill="#E74138"/>
<path d="M68.7434 39.9937H63.615C63.5173 39.9937 63.4346 39.9067 63.4346 39.8039V36.4025C63.4346 36.2997 63.5173 36.2127 63.615 36.2127H68.7434C68.8411 36.2127 68.9238 36.2997 68.9238 36.4025V39.8039C68.9238 39.9067 68.8411 39.9937 68.7434 39.9937Z" fill="#3474B9"/>
<path d="M68.7434 45.958H63.615C63.5173 45.958 63.4346 45.871 63.4346 45.7682V42.3668C63.4346 42.264 63.5173 42.177 63.615 42.177H68.7434C68.8411 42.177 68.9238 42.264 68.9238 42.3668V45.7682C68.9238 45.871 68.8411 45.958 68.7434 45.958ZM11.5197 34.0295H6.39141C6.29365 34.0295 6.21094 33.9425 6.21094 33.8397V30.4383C6.21094 30.3355 6.29365 30.2484 6.39141 30.2484H11.5197C11.6175 30.2484 11.7002 30.3355 11.7002 30.4383V33.8397C11.6927 33.9504 11.6175 34.0295 11.5197 34.0295Z" fill="#E74138"/>
<path d="M11.5197 39.9937H6.39141C6.29365 39.9937 6.21094 39.9067 6.21094 39.8039V36.4025C6.21094 36.2997 6.29365 36.2127 6.39141 36.2127H11.5197C11.6175 36.2127 11.7002 36.2997 11.7002 36.4025V39.8039C11.6927 39.9067 11.6175 39.9937 11.5197 39.9937Z" fill="#3474B9"/>
<path d="M11.5197 45.958H6.39141C6.29365 45.958 6.21094 45.871 6.21094 45.7682V42.3668C6.21094 42.264 6.29365 42.177 6.39141 42.177H11.5197C11.6175 42.177 11.7002 42.264 11.7002 42.3668V45.7682C11.6927 45.871 11.6175 45.958 11.5197 45.958Z" fill="#E74138"/>
<path d="M65.6829 17.7108C66.6229 17.0068 66.1491 15.4406 64.9911 15.4406H9.5421C8.38409 15.4406 7.91036 16.9989 8.8503 17.7108L33.8227 36.4342C35.883 37.9767 38.6427 37.9767 40.6955 36.4342L65.6829 17.7108Z" fill="white"/>
<path d="M37.2669 38.4275C35.8608 38.4275 34.5148 37.9767 33.3718 37.1145L8.39943 18.3911C7.68507 17.8532 7.39181 16.9356 7.66251 16.0576C7.93322 15.1796 8.67013 14.6101 9.54991 14.6101H64.9989C65.8787 14.6101 66.6156 15.1796 66.8863 16.0576C67.157 16.9356 66.8638 17.8532 66.1494 18.3911L41.162 37.1145C40.0191 37.9767 38.6731 38.4275 37.2669 38.4275ZM9.54239 16.2791C9.27921 16.2791 9.1965 16.4848 9.16642 16.5639C9.13634 16.6509 9.09874 16.8724 9.31681 17.0306L34.2892 35.7618C35.1614 36.4184 36.1916 36.7664 37.2669 36.7664C38.3422 36.7664 39.3724 36.4184 40.2446 35.7618L65.217 17.0385C65.4275 16.8803 65.3899 16.6588 65.3674 16.5718C65.3373 16.4848 65.2546 16.287 64.9914 16.287H9.54239V16.2791Z" fill="#4C4C4C"/>
<path d="M65.6004 63.653H8.9332C6.6623 63.653 4.8125 61.7071 4.8125 59.3183V18.7154C4.8125 16.3266 6.6623 14.3807 8.9332 14.3807H65.5929C67.8638 14.3807 69.7136 16.3266 69.7136 18.7154V59.3183C69.7211 61.7071 67.8713 63.653 65.6004 63.653ZM8.9332 16.5164C7.78272 16.5164 6.85029 17.4973 6.85029 18.7075V59.3103C6.85029 60.5206 7.78272 61.5015 8.9332 61.5015H65.5929C66.7434 61.5015 67.6758 60.5206 67.6758 59.3103V18.7154C67.6758 17.5052 66.7434 16.5243 65.5929 16.5243H8.9332V16.5164Z" fill="#4C4C4C"/>
<path d="M31.9507 37.5179C31.9507 39.0116 32.5148 40.4441 33.5188 41.5003C34.5229 42.5565 35.8846 43.1499 37.3046 43.1499C38.7245 43.1499 40.0863 42.5565 41.0904 41.5003C42.0944 40.4441 42.6585 39.0116 42.6585 37.5179C42.6585 36.0242 42.0944 34.5916 41.0904 33.5354C40.0863 32.4792 38.7245 31.8858 37.3046 31.8858C35.8846 31.8858 34.5229 32.4792 33.5188 33.5354C32.5148 34.5916 31.9507 36.0242 31.9507 37.5179Z" fill="white"/>
<path d="M37.3046 43.9805C33.9133 43.9805 31.1611 41.0774 31.1611 37.5179C31.1611 33.9583 33.9208 31.0553 37.3046 31.0553C40.6884 31.0553 43.448 33.9583 43.448 37.5179C43.448 41.0774 40.6884 43.9805 37.3046 43.9805ZM37.3046 32.7164C34.7931 32.7164 32.7478 34.868 32.7478 37.51C32.7478 40.1519 34.7931 42.3035 37.3046 42.3035C39.8161 42.3035 41.8614 40.1519 41.8614 37.51C41.8614 34.868 39.8161 32.7164 37.3046 32.7164Z" fill="#4C4C4C"/>
<path d="M34.3569 37.5179C34.3569 38.3402 34.6675 39.1289 35.2203 39.7104C35.7731 40.292 36.5228 40.6186 37.3046 40.6186C38.0864 40.6186 38.8361 40.292 39.3889 39.7104C39.9417 39.1289 40.2522 38.3402 40.2522 37.5179C40.2522 36.6955 39.9417 35.9068 39.3889 35.3253C38.8361 34.7438 38.0864 34.4171 37.3046 34.4171C36.5228 34.4171 35.7731 34.7438 35.2203 35.3253C34.6675 35.9068 34.3569 36.6955 34.3569 37.5179Z" fill="#E74138"/>
<path d="M37.3046 41.4492C35.2442 41.4492 33.5674 39.6852 33.5674 37.5179C33.5674 35.3505 35.2442 33.5865 37.3046 33.5865C39.3649 33.5865 41.0418 35.3505 41.0418 37.5179C41.0418 39.6852 39.3649 41.4492 37.3046 41.4492ZM37.3046 35.2556C36.1165 35.2556 35.154 36.2681 35.154 37.5179C35.154 38.7677 36.1165 39.7802 37.3046 39.7802C38.4927 39.7802 39.4552 38.7677 39.4552 37.5179C39.4552 36.2681 38.4852 35.2556 37.3046 35.2556Z" fill="#336EAD"/>
<path d="M50.1325 54.1846H13.2868C13.1364 54.1846 13.0161 54.058 13.0161 53.8998V52.7449C13.0161 52.5867 13.1364 52.4602 13.2868 52.4602H50.1325C50.2829 52.4602 50.4032 52.5867 50.4032 52.7449V53.8998C50.4032 54.058 50.2829 54.1846 50.1325 54.1846ZM38.4622 57.404H13.2943C13.1439 57.404 13.0236 57.2774 13.0236 57.1192V55.9644C13.0236 55.8061 13.1439 55.6796 13.2943 55.6796H38.4697C38.6201 55.6796 38.7404 55.8061 38.7404 55.9644V57.1192C38.7404 57.2774 38.6126 57.404 38.4622 57.404ZM61.4645 50.5143H13.2943C13.1439 50.5143 13.0236 50.3877 13.0236 50.2295V49.0746C13.0236 48.9164 13.1439 48.7898 13.2943 48.7898H61.4645C61.6148 48.7898 61.7352 48.9164 61.7352 49.0746V50.2295C61.7352 50.3877 61.6148 50.5143 61.4645 50.5143Z" fill="#C9E6E6"/>
</svg>
