<svg width="67" height="65" viewBox="0 0 67 65" fill="none" xmlns="http://www.w3.org/2000/svg">
<path fill-rule="evenodd" clip-rule="evenodd" d="M33.5 4.0625C17.3216 4.0625 4.1875 16.8045 4.1875 32.5C4.1875 48.1955 17.3216 60.9375 33.5 60.9375C49.6784 60.9375 62.8125 48.1955 62.8125 32.5C62.8125 16.8045 49.6784 4.0625 33.5 4.0625ZM19.4112 25.0758L19.7252 25.6019L32.7693 47.5231L34.5825 48.5387L32.7798 47.5373L33.0938 48.0655C34.0883 49.7392 35.979 50.8808 38.4433 51.0778C40.5224 51.2444 42.8758 50.7041 44.9737 49.528C47.3208 48.2137 49.4083 47.0438 49.4083 47.0438C50.4091 46.4831 50.7525 45.242 50.1746 44.2691L45.8259 36.9627C45.248 35.9917 43.9667 35.6586 42.9658 36.2192L41.1527 37.2348L33.1001 23.7027L34.9133 22.687C35.9141 22.1264 36.2575 20.8833 35.6796 19.9123L31.3309 12.6059C30.753 11.633 29.4716 11.3019 28.4708 11.8625C28.4708 11.8625 26.3833 13.0305 24.0362 14.3467C21.9383 15.5208 20.278 17.2291 19.3881 19.0572C18.3308 21.2266 18.4062 23.3858 19.4007 25.0595L19.4112 25.0758ZM36.4061 45.5061L23.0271 23.0283C22.6565 22.4047 22.78 21.6023 23.1736 20.7939C23.7327 19.6442 24.8109 18.6022 26.13 17.8648L28.7514 16.3962L31.0063 20.1845L29.1932 21.2002C28.1923 21.7608 27.849 23.0039 28.4268 23.9748L38.5732 41.0252C39.151 41.9961 40.4324 42.3292 41.4332 41.7686L43.2464 40.753L45.5014 44.5412L42.88 46.0098C41.5609 46.7492 40.0932 47.1331 38.7867 47.0295C37.8864 46.9584 37.1243 46.672 36.7432 46.0748L36.4061 45.5061Z" fill="black"/>
</svg>
