<svg width="55" height="58" viewBox="0 0 55 58" fill="none" xmlns="http://www.w3.org/2000/svg">
<g clip-path="url(#clip0_127_27)">
<path fill-rule="evenodd" clip-rule="evenodd" d="M27.5 0C42.6882 0 55 13.3108 55 29.7335C55 42.8676 47.1295 54.0095 36.2093 57.9448C34.815 58.2377 34.32 57.3091 34.32 56.5174C34.32 55.5372 34.353 52.3357 34.353 48.3569C34.353 45.5845 33.473 43.7751 32.4858 42.8529C38.61 42.1163 45.045 39.6017 45.045 28.1815C45.045 24.9335 43.978 22.2831 42.2125 20.2009C42.4985 19.4498 43.4417 16.4255 41.943 12.3307C41.943 12.3307 39.6385 11.5339 34.3887 15.3793C32.1915 14.721 29.8375 14.3898 27.5 14.3782C25.1625 14.3898 22.8113 14.721 20.6168 15.3793C15.3615 11.5339 13.0515 12.3307 13.0515 12.3307C11.5583 16.4255 12.5015 19.4498 12.7848 20.2009C11.0275 22.2831 9.95226 24.9335 9.95226 28.1815C9.95226 39.5727 16.3735 42.1259 22.4813 42.877C21.6948 43.6194 20.9825 44.929 20.735 46.8517C19.1675 47.6115 15.1855 48.9265 12.7325 44.3822C12.7325 44.3822 11.2778 41.5253 8.51675 41.3165C8.51675 41.3165 5.8355 41.2789 8.32975 43.1233C8.32975 43.1233 10.131 44.0368 11.3822 47.4733C11.3822 47.4733 12.9965 52.7802 20.647 50.9822C20.6608 53.4675 20.6855 55.8098 20.6855 56.5174C20.6855 57.3033 20.1795 58.2231 18.8072 57.9476C7.87874 54.0181 0 42.8705 0 29.7335C0 13.3108 12.3145 0 27.5 0Z" fill="black"/>
</g>
<defs>
<clipPath id="clip0_127_27">
<rect width="55" height="58" fill="white"/>
</clipPath>
</defs>
</svg>
